<svg xmlns="http://www.w3.org/2000/svg" viewBox="0 0 240 240" role="img" aria-label="PetFlow paw card">
  <defs>
    <clipPath id="card">
      <rect x="0" y="0" width="240" height="240" rx="24"/>
    </clipPath>
    <filter id="soft" x="-8%" y="-8%" width="116%" height="124%">
      <feDropShadow dx="6" dy="8" stdDeviation="0" flood-color="#9b6a2f" flood-opacity=".1"/>
    </filter>
  </defs>
  <g clip-path="url(#card)">
    <rect width="240" height="240" fill="#fee5a8"/>
    <path d="M-22 64c43-13 69-10 99 1 36 13 58 9 91-10 34-20 62-16 94 4v78c-44-9-74-6-104 3-43 13-78 3-119-10-27-9-44-9-61-1Z" fill="#efbf72" opacity=".76"/>
    <path d="M-22 130c34-20 60-22 95-8 40 16 76 22 111-2 40-28 55-23 91 6v54c-45 25-80 21-119 6-47-18-84 17-125 3-21-7-37-11-53-1Z" fill="#fff7dc" opacity=".92"/>
    <path d="M-22 190c35-33 66-65 104-40 35 23 58 52 92 26 37-28 74-34 112 18v62H-22Z" fill="#f4ad4f"/>
  </g>
  <g fill="#fff9df" filter="url(#soft)">
    <ellipse cx="57" cy="117" rx="22" ry="34" transform="rotate(-23 57 117)"/>
    <ellipse cx="87" cy="76" rx="22" ry="34" transform="rotate(-12 87 76)"/>
    <ellipse cx="140" cy="69" rx="22" ry="34" transform="rotate(5 140 69)"/>
    <ellipse cx="185" cy="103" rx="22" ry="34" transform="rotate(12 185 103)"/>
    <path d="M71 179c11-30 23-61 48-65 20-3 31 11 45 29 17 20 39 29 51 48 12 19 5 36-19 42-18 5-39 3-59-8-14-8-30-12-45 1-25 21-55 12-73-11-14-18 0-25 19-36 12-7 22-3 33 0Z"/>
  </g>
</svg>
