<svg xmlns="http://www.w3.org/2000/svg" viewBox="0 0 512 512" role="img" aria-label="PetFlow">
  <defs>
    <linearGradient id="bg" x1="70" y1="42" x2="438" y2="474" gradientUnits="userSpaceOnUse">
      <stop stop-color="#fff8df"/>
      <stop offset="1" stop-color="#f8edc7"/>
    </linearGradient>
    <clipPath id="round">
      <rect x="28" y="28" width="456" height="456" rx="80"/>
    </clipPath>
    <filter id="softShadow" x="-20%" y="-20%" width="140%" height="150%">
      <feDropShadow dx="18" dy="18" stdDeviation="0" flood-color="#875427" flood-opacity=".12"/>
    </filter>
  </defs>
  <rect width="512" height="512" fill="#f5f8f4"/>
  <g clip-path="url(#round)">
    <rect x="28" y="28" width="456" height="456" rx="80" fill="url(#bg)"/>
    <path d="M-34 180c86-27 136-26 190 0 61 30 105-6 157-31 66-31 114-4 232-61v164c-100 25-160 3-220 27-73 29-114 21-183-2-59-19-103-7-176 35Z" fill="#f6b154" opacity=".42"/>
    <path d="M-34 376c66-78 108-105 156-65 63 53 101 77 162 23 70-62 91-72 138-32 54 45 67 62 124 0v210H-34Z" fill="#f6b154" opacity=".86"/>
    <path d="M70 272c83-37 146 23 213-14 75-41 95-45 142-6 48 40 73 37 121-19v68c-40 54-73 57-119 14-43-40-69-38-133 8-66 47-139 4-224 28Z" fill="#fff8df" opacity=".9"/>
  </g>
  <g fill="#fffbdf" filter="url(#softShadow)">
    <ellipse cx="149" cy="182" rx="38" ry="66" transform="rotate(-22 149 182)"/>
    <ellipse cx="224" cy="142" rx="36" ry="64" transform="rotate(-6 224 142)"/>
    <ellipse cx="318" cy="142" rx="36" ry="64" transform="rotate(8 318 142)"/>
    <ellipse cx="398" cy="184" rx="38" ry="66" transform="rotate(16 398 184)"/>
    <path d="M183 338c24-62 46-85 76-68 24 14 31 43 72 29 41-14 61-16 90 15 45 49 23 103-47 108-53 4-70-3-103-17-28-12-42-1-70 16-39 24-62 12-92-20-25-26-8-39 18-63 16-15 31-40 56-0Z"/>
  </g>
</svg>
