<svg xmlns="http://www.w3.org/2000/svg" viewBox="0 0 512 512">
  <defs><linearGradient id="g" x1="0" y1="0" x2="1" y2="1"><stop stop-color="#66d4aa"/><stop offset="1" stop-color="#258362"/></linearGradient></defs>
  <rect width="512" height="512" rx="138" fill="url(#g)"/>
  <path d="M144 272c0-62 50-112 112-112s112 50 112 112v71c0 25-20 45-45 45H189c-25 0-45-20-45-45v-71Z" fill="#fff" opacity=".95"/>
  <circle cx="205" cy="270" r="16" fill="#258362"/><circle cx="307" cy="270" r="16" fill="#258362"/>
  <path d="M228 321c18 18 38 18 56 0" fill="none" stroke="#258362" stroke-width="15" stroke-linecap="round"/>
  <path d="M164 203 114 98c65 4 108 31 125 76M348 203l50-105c-65 4-108 31-125 76" fill="#fff" opacity=".95" stroke="#fff" stroke-width="12" stroke-linejoin="round"/>
</svg>
